# xmcd
#
# Track frame offsets: 
#        150
#        12028
#        23713
#        38193
#        48493
#        60665
#        72765
#        86483
#        100150
#        111373
#        124110
#        135543
#        147630
#        158478
#        172335
#        183788
#        192525
#        205945
#        216670
#        230330
#        240900
#        251563
#        264090
#        274093
#        288350
#        302798
#
# Disc length: 4175 seconds
#
# Revision: 3
# Processed by: cddbd v1.5.2PL0 Copyright (c) Steve Scherf et al.
# Submitted via: ExactAudioCopyFreeDBPlugin 1.0
#
DISCID=77104d1a
DTITLE=Various Artist - The Specialty Story [box set]
DYEAR=1994
DGENRE=Rhythm and Blues
TTITLE0=Lloyd Price - Oooh Oooh Oooh
TTITLE1=Lloyd Price - Restless Heart
TTITLE2=Jesse and Marvin - Dream Girl
TTITLE3=Lloyd Price - Tell Me Pretty Baby
TTITLE4=Lloyd Price - Ain't it a Shame
TTITLE5=Frank Motley and His Crew - Frantic
TTITLE6=Alex Bradford - Too Close to Heaven
TTITLE7=The Swan Silvertones - I'm Coming Home
TTITLE8=The Pilgram Travelers - I've Got a New Home
TTITLE9=Mercy Dee Walton - One Room Country Shack
TTITLE10=Frankie Lee Sims - Lucy Mae Blues
TTITLE11=Roy Milton and His Solid Senders - Early in the Morning
TTITLE12=H-Bomb Ferguson - She's Been Gone
TTITLE13=Floyd Dixon - Hard Living Alone
TTITLE14=Jimmy Liggins and His 3-D Music - Drunk
TTITLE15=Little Temple and His 88 - I Ate the Wrong Part
TTITLE16=Honeyboy - Bloodstains on the Wall
TTITLE17=Marvin and Johnny - Baby Doll
TTITLE18=Guitar Slim - The Things That I Used to Do
TTITLE19=Earl King - I'm Your Best Bet Baby
TTITLE20=The Chosen Gospel Singers - No Room in the Hotel (ft Lou Rawl
TTITLE20=s)
TTITLE21=John Lee Hooker - I'm Mad
TTITLE22=Daddy Cleanhead - Something's Going on in My Room
TTITLE23=The Chimes - Zindy Lou
TTITLE24=The Soul Stirrers - One More River (ft Sam Cooke)
TTITLE25=Jesse Belvin - Where's My Girl
EXTD=
EXTT0=
EXTT1=
EXTT2=
EXTT3=
EXTT4=
EXTT5=
EXTT6=
EXTT7=
EXTT8=
EXTT9=
EXTT10=
EXTT11=
EXTT12=
EXTT13=
EXTT14=
EXTT15=
EXTT16=
EXTT17=
EXTT18=
EXTT19=
EXTT20=
EXTT21=
EXTT22=
EXTT23=
EXTT24=
EXTT25=
PLAYORDER=
